<?xml version="1.0" encoding="UTF-8" standalone="no"?>
<svg
   xmlns:osb="http://www.openswatchbook.org/uri/2009/osb"
   xmlns:dc="http://purl.org/dc/elements/1.1/"
   xmlns:cc="http://creativecommons.org/ns#"
   xmlns:rdf="http://www.w3.org/1999/02/22-rdf-syntax-ns#"
   xmlns:svg="http://www.w3.org/2000/svg"
   xmlns="http://www.w3.org/2000/svg"
   xmlns:xlink="http://www.w3.org/1999/xlink"
   xmlns:sodipodi="http://sodipodi.sourceforge.net/DTD/sodipodi-0.dtd"
   xmlns:inkscape="http://www.inkscape.org/namespaces/inkscape"
   width="342"
   height="342"
   viewBox="0 0 342 342"
   id="svg2"
   version="1.1"
   inkscape:version="0.91 r13725"
   sodipodi:docname="green-circle-small.svg">
  <sodipodi:namedview
     pagecolor="#ffffff"
     bordercolor="#666666"
     borderopacity="1"
     objecttolerance="10"
     gridtolerance="10"
     guidetolerance="10"
     inkscape:pageopacity="0"
     inkscape:pageshadow="2"
     inkscape:window-width="640"
     inkscape:window-height="480"
     id="namedview49"
     showgrid="false"
     inkscape:zoom="0.69005848"
     inkscape:cx="145.63983"
     inkscape:cy="171"
     inkscape:window-x="0"
     inkscape:window-y="24"
     inkscape:window-maximized="0"
     inkscape:current-layer="svg2" />
  <metadata
     id="metadata24">
    <rdf:RDF>
      <cc:Work
         rdf:about="">
        <dc:format>image/svg+xml</dc:format>
        <dc:type
           rdf:resource="http://purl.org/dc/dcmitype/StillImage" />
        <dc:title />
      </cc:Work>
    </rdf:RDF>
  </metadata>
  <defs
     id="defs4">
    <linearGradient
       osb:paint="solid"
       id="linearGradient4156">
      <stop
         id="stop4158"
         offset="0"
         style="stop-color:#ff0000;stop-opacity:1;" />
    </linearGradient>
    <radialGradient
       id="a"
       cx="93.520699"
       r="293.53629"
       fx="93.520699"
       fy="120.91526"
       gradientTransform="scale(0.70710678,1.4142136)"
       cy="120.91526"
       gradientUnits="userSpaceOnUse">
      <stop
         offset="0%"
         stop-color="#7BFBA2"
         id="stop7" />
      <stop
         offset="100%"
         stop-color="#1ED760"
         id="stop9" />
    </radialGradient>
    <radialGradient
       id="b"
       cx="42.407433"
       r="224.68274"
       fx="42.407433"
       fy="121.00314"
       gradientTransform="scale(0.70836637,1.4116989)"
       cy="121.00314"
       gradientUnits="userSpaceOnUse">
      <stop
         offset="0%"
         stop-color="#7BFBA2"
         id="stop12" />
      <stop
         offset="100%"
         stop-color="#1DCD5C"
         id="stop14" />
    </radialGradient>
  </defs>
  <g
     id="g4172">
    <g
       style="fill:none;fill-rule:nonzero"
       id="g16">
      <path
         style="fill:url(#a)"
         id="path18"
         d="M 0,342 0,323 C 83.947,323 152,254.947 152,171 152,87.053 83.947,19 0,19 L 0,0 C 94.44,0 171,76.56 171,171 171,265.44 94.44,342 0,342 Z"
         transform="matrix(-1,0,0,1,171,0)" />
      <path
         style="fill:url(#b)"
         id="path20"
         d="m 30.04,311.32 0,-66.453 c 41.041,0 74.312,-33.152 74.312,-74.047 0,-40.896 -33.27,-74.048 -74.311,-74.048 l 0,-66.452 c 77.872,0 141,62.904 141,140.5 0,77.596 -63.128,140.5 -141,140.5 z"
         transform="matrix(-1,0,0,1,200.912,0)" />
    </g>
    <use
       x="0"
       y="0"
       xlink:href="#g16"
       id="use4170"
       transform="matrix(-1,0,0,1,341.7,0)"
       width="100%"
       height="100%" />
  </g>
  <defs
     id="defs29">
    <rect
       id="rect31"
       width="8"
       height="2"
       x="8"
       y="29"
       rx="1" />
    <rect
       id="rect33"
       width="8"
       height="2"
       x="8"
       y="32"
       rx="1" />
  </defs>
</svg>
