<svg xmlns="http://www.w3.org/2000/svg" width="50" height="57" viewBox="0 0 50 57">
    <path fill="#ffffff" fill-rule="nonzero" d="M45 36.932c-1.674 4.737-6.025 12.903-10.879 13.066-3.347 0-4.351-1.96-8.2-1.96-3.85 0-5.021 1.96-8.034 1.96C12.531 50.162 5 38.075 5 27.622c0-9.636 6.36-14.536 12.218-14.536 3.18 0 6.192 2.124 8.2 2.124 2.009 0 5.523-2.614 9.373-2.287 1.673 0 6.192.653 9.037 4.9-7.866 4.9-7.029 15.353 1.172 19.11zM34.79 1c-5.857.163-10.543 6.206-9.874 11.27 5.356.49 10.377-5.554 9.875-11.27z"/>
</svg>
