<svg xmlns="http://www.w3.org/2000/svg" width="38" height="28" viewBox="0 0 38 28">
    <g fill="#2F9151" fill-rule="nonzero">
        <path d="M12.75 4a.88.88 0 0 0-.88.88v9.977c0 .486.394.88.88.88h19.37a.88.88 0 0 0 .88-.88V4.88a.88.88 0 0 0-.88-.88H12.75zM33.5 24.5h-3.607A2.48 2.48 0 0 1 27.61 26c-1.365 0-2.479-1.094-2.479-2.453 0-1.004.61-1.864 1.479-2.244v-3.566h-13.86a2.88 2.88 0 0 1-2.88-2.88V4.88A2.88 2.88 0 0 1 12.75 2H32.12A2.88 2.88 0 0 1 35 4.88v9.977a2.88 2.88 0 0 1-2.88 2.88h-3.511v3.566c.544.238.987.664 1.241 1.197h3.65V22a.5.5 0 0 1 .276-.447l2-1A.5.5 0 0 1 36.5 21v5a.5.5 0 0 1-.724.447l-2-1A.5.5 0 0 1 33.5 25v-.5zM8.383 4.265a1 1 0 0 1 .53.882v9.442a1 1 0 0 1-.53.883L2.47 18.62A1 1 0 0 1 1 17.737V2a1 1 0 0 1 1.47-.883l5.913 3.148zM3 3.665v12.407l3.913-2.083V5.748L3 3.665z"/>
        <path d="M24.174 7.568h5.391a1 1 0 0 1 0 2h-5.391a1 1 0 0 1 0-2z"/>
    </g>
</svg>
