<svg xmlns="http://www.w3.org/2000/svg" width="37" height="41" viewBox="0 0 37 41">
    <g fill="#2A828F" fill-rule="evenodd">
        <path d="M13.741 20.007C11.515 23.883 8.7 29.303 8.7 31.927c0 1.232.276 2.397.768 3.434a7.631 7.631 0 0 1-.768.039c-4.25 0-7.7-3.517-7.7-7.873C1 23.187 8.7 11.2 8.7 11.2s2.815 4.383 5.041 8.807zM23 20.007c2.226 3.876 5.041 9.296 5.041 11.92a7.994 7.994 0 0 1-.768 3.434c.253.026.509.039.768.039 4.25 0 7.7-3.517 7.7-7.873 0-4.34-7.7-16.327-7.7-16.327S25.226 15.583 23 20.007z" opacity=".7"/>
        <path d="M10.9 31.927c0-4.34 7.7-16.327 7.7-16.327s7.7 11.987 7.7 16.327c0 4.356-3.45 7.873-7.7 7.873s-7.7-3.517-7.7-7.873zM18.623 3.578a2.37 2.37 0 0 1-1.201 2.08 2.382 2.382 0 0 1-1.208.322 2.35 2.35 0 0 1-1.197-.322 2.378 2.378 0 0 1-1.19-2.08c0-.322.06-.63.184-.925.124-.296.296-.553.517-.772a2.351 2.351 0 0 1 1.686-.691c.433 0 .836.107 1.208.32a2.37 2.37 0 0 1 1.201 2.068zm4.413-2.388l-6.975 10.068h-1.432L21.626 1.19h1.41zm.803 7.666c0 .433-.107.835-.321 1.205-.214.37-.506.662-.877.876-.37.214-.771.321-1.204.321a2.37 2.37 0 0 1-2.067-1.201 2.37 2.37 0 0 1-.321-1.2c0-.322.062-.63.185-.926a2.357 2.357 0 0 1 2.203-1.463c.428 0 .829.107 1.201.322a2.37 2.37 0 0 1 1.201 2.066zm-6.675-5.264a.9.9 0 0 0-.28-.67.926.926 0 0 0-.67-.273c-.26 0-.48.092-.66.276a.92.92 0 0 0-.269.667c0 .256.091.474.273.656.181.182.4.272.656.272s.478-.09.667-.269c.189-.179.283-.399.283-.66zM22.38 8.87a.911.911 0 0 0-.273-.67.911.911 0 0 0-.67-.272c-.26 0-.48.092-.66.276a.92.92 0 0 0-.269.666c0 .256.091.475.273.657.181.181.4.272.656.272a.92.92 0 0 0 .667-.269c.184-.179.276-.399.276-.66z"/>
    </g>
</svg>
