<svg xmlns="http://www.w3.org/2000/svg" width="24" height="35" viewBox="0 0 24 35">
    <g fill="#2F9151" fill-rule="evenodd">
        <rect width="8" height="2" x="8" y="29" rx="1"/>
        <rect width="8" height="2" x="8" y="32" rx="1"/>
        <path fill-rule="nonzero" d="M10 27a3 3 0 0 1-3-3v-2.506C3.034 18.41 1 15.073 1 11.5 1 5.52 5.36 1 12 1s11 4.52 11 10.5c0 3.573-2.034 6.909-6 9.994V24a3 3 0 0 1-3 3h-4zm0-2h4a1 1 0 0 0 1-1v-2.505a2 2 0 0 1 .772-1.579C19.292 17.176 21 14.376 21 11.5 21 6.61 17.52 3 12 3s-9 3.61-9 8.5c0 2.876 1.708 5.677 5.228 8.416A2 2 0 0 1 9 21.494V24a1 1 0 0 0 1 1z"/>
        <path fill-rule="nonzero" d="M9.749 15.933l1.736 6.946a.5.5 0 0 1-.97.242l-2-8a.5.5 0 0 1 .709-.568l1.677.839.745-.746a.5.5 0 0 1 .708 0l.745.746 1.677-.84a.5.5 0 0 1 .71.57l-2 8a.5.5 0 0 1-.971-.243l1.736-6.946-1.027.514a.5.5 0 0 1-.578-.093L12 15.707l-.646.647a.5.5 0 0 1-.578.093l-1.027-.514z"/>
    </g>
</svg>
