<svg xmlns="http://www.w3.org/2000/svg" width="37" height="29" viewBox="0 0 37 29">
    <g fill="#2F9151" fill-rule="evenodd">
        <path d="M9 4.53L24 1v18c-.5 1.5-2.823 2-3.964 2C17.808 21 16 19.656 16 18s1.808-3 4.036-3c.734 0 1.37.244 1.964.5V6.47L9 9.53V22c-.5 1.5-2.823 2-3.964 2C2.808 24 1 22.656 1 21s1.808-3 4.036-3c.734 0 1.37.244 1.964.5V5l2-.5v.03zM32 8.697l1.243 1.864a3 3 0 0 0 1.154 1.02l.05.025A3.286 3.286 0 0 1 36.2 13.9V15l-1.7 2-.261-2.708a1.286 1.286 0 0 0-.686-.898l-.05-.025A5 5 0 0 1 32 12.217V26c-.5 1.5-2.823 2-3.964 2C25.808 28 24 26.656 24 25s1.808-3 4.036-3c.734 0 1.37.244 1.964.5V9l2-1v.697z"/>
    </g>
</svg>
