<svg xmlns="http://www.w3.org/2000/svg" width="35" height="35" viewBox="0 0 35 35">
    <g fill="none" fill-rule="evenodd">
        <circle cx="9" cy="26" r="1"/>
        <path d="M12 20.5V6c0-1.7-1.3-3-3-3S6 4.3 6 6v14.5c-2.1 1-3 3.2-3 5.5 0 3.3 2.7 6 6 6s6-2.7 6-6c0-2.3-.9-4.5-3-5.5zM9 29c-1.7 0-3-1.3-3-3 0-1.3.9-2.4 2-2.8V13c0-.6.4-1 1-1s1 .4 1 1v10.2c1.2.4 2 1.5 2 2.8 0 1.7-1.3 3-3 3zM25.5 13h2V9.5H31v-2h-3.5V4h-2v3.5H22v2h3.5zM22 25.5h9v2h-9z"/>
        <path fill="#2A828F" fill-rule="nonzero" d="M14 19.8V6c0-2.8-2.2-5-5-5S4 3.2 4 6v13.8c-1.9 1.5-3 3.8-3 6.2 0 4.4 3.6 8 8 8s8-3.6 8-8c0-2.5-1.1-4.8-3-6.2zM9 32c-3.3 0-6-2.7-6-6 0-2.3.9-4.5 3-5.5V6c0-1.7 1.3-3 3-3s3 1.3 3 3v14.5c2.1 1 3 3.2 3 5.5 0 3.3-2.7 6-6 6z"/>
        <path fill="#2A828F" fill-rule="nonzero" d="M10 23.2V13c0-.6-.4-1-1-1s-1 .4-1 1v10.2c-1.2.4-2 1.5-2 2.8 0 1.7 1.3 3 3 3s3-1.3 3-3c0-1.3-.9-2.4-2-2.8zM9 12.5v.5-.5zM9 27c-.6 0-1-.4-1-1s.4-1 1-1 1 .4 1 1-.4 1-1 1zM26.5 16c4.1 0 7.5-3.4 7.5-7.5S30.6 1 26.5 1 19 4.4 19 8.5s3.4 7.5 7.5 7.5zM22 7.5h3.5V4h2v3.5H31v2h-3.5V13h-2V9.5H22v-2zM26.5 19c-4.1 0-7.5 3.4-7.5 7.5s3.4 7.5 7.5 7.5 7.5-3.4 7.5-7.5-3.4-7.5-7.5-7.5zm4.5 8.5h-9v-2h9v2z"/>
    </g>
</svg>
