<svg xmlns="http://www.w3.org/2000/svg" width="48" height="35" viewBox="0 0 48 35">
    <g fill="#2A828F" fill-rule="nonzero">
        <path d="M18.5 22a3.5 3.5 0 1 1 0-7 3.5 3.5 0 0 1 0 7z"/>
        <path d="M19.495 13.447a1 1 0 0 1-1.789-.894c.193-.385.193-.72 0-1.106-.075-.151-.574-1.019-.71-1.271-.862-1.61-1.225-2.982-.866-4.419C16.868 2.807 19.008 1 21.6 1c3.287 0 6 1.889 7.858 4.986 1.277 2.127 1.232 5.07.037 7.461-.804 1.608-2.663 2.91-5.543 3.99a1 1 0 0 1-.702-1.873c2.452-.92 3.927-1.952 4.456-3.011.906-1.812.94-4.035.037-5.539C26.217 4.472 24.103 3 21.601 3c-1.642 0-3.008 1.154-3.53 3.243-.21.836.04 1.777.689 2.988.11.206.628 1.108.735 1.322.474.948.474 1.946 0 2.894zM13.756 19.846a1 1 0 0 1-.09 1.998c-.43-.02-.736.117-1.01.45-.107.13-.697.939-.872 1.165-1.12 1.443-2.226 2.332-3.684 2.588-2.995.527-5.517-.693-6.572-3.062-1.336-3.002-.714-6.249 1.359-9.206 1.425-2.032 4.131-3.188 6.802-3.068 1.795.08 3.74 1.249 5.898 3.441a1 1 0 0 1-1.425 1.403c-1.838-1.866-3.38-2.793-4.563-2.846-2.023-.091-4.068.782-5.074 2.218-1.703 2.428-2.187 4.959-1.17 7.245.668 1.5 2.278 2.278 4.398 1.906.85-.15 1.608-.76 2.45-1.846.143-.184.757-1.024.909-1.209.673-.818 1.585-1.224 2.644-1.177zM21.957 21.655a1 1 0 1 1 1.67-1.102c.237.36.527.527.957.553.169.01 1.17.013 1.455.022 1.826.058 3.195.429 4.26 1.458 2.186 2.114 2.682 4.87 1.385 7.116-1.643 2.846-4.635 4.252-8.246 4.313-2.481.041-5.008-1.469-6.48-3.7-.991-1.5-1.189-3.76-.684-6.795a1 1 0 0 1 1.973.329c-.43 2.584-.273 4.377.38 5.365 1.115 1.69 3.024 2.83 4.777 2.8 2.965-.05 5.297-1.144 6.548-3.312.821-1.421.505-3.181-1.043-4.678-.62-.599-1.56-.854-2.933-.897-.233-.008-1.273-.01-1.512-.024-1.058-.064-1.923-.563-2.507-1.448zM45.506 15.487l-1.763-1.058a.5.5 0 0 1 .514-.858l2.492 1.495a.497.497 0 0 1 .251.44.496.496 0 0 1-.117.315l-1.993 2.491a.5.5 0 1 1-.78-.624l.734-.919a5.5 5.5 0 0 1-3.367-.279l-1.557-.648a4.5 4.5 0 0 0-3.743.129l-2.953 1.476a.5.5 0 0 1-.448-.894l2.954-1.477a5.5 5.5 0 0 1 4.575-.157l1.557.648a4.5 4.5 0 0 0 3.644-.08zM45.51 21.49l-1.767-1.061a.5.5 0 0 1 .514-.858l2.5 1.5a.5.5 0 0 1 .243.43.5.5 0 0 1-.145.356l-1.965 2.455a.5.5 0 1 1-.78-.624l.73-.913a5.5 5.5 0 0 1-3.363-.28l-1.557-.649a4.5 4.5 0 0 0-3.743.13l-2.953 1.476a.5.5 0 0 1-.448-.895l2.954-1.476a5.5 5.5 0 0 1 4.575-.158l1.557.649a4.5 4.5 0 0 0 3.648-.083zM45.51 9.49l-1.767-1.061a.5.5 0 0 1 .514-.858l2.5 1.5a.5.5 0 0 1 .243.43.5.5 0 0 1-.145.356l-1.965 2.455a.5.5 0 1 1-.78-.624l.73-.913a5.5 5.5 0 0 1-3.363-.28l-1.557-.649a4.5 4.5 0 0 0-3.743.13l-2.953 1.476a.5.5 0 0 1-.448-.895l2.954-1.476a5.5 5.5 0 0 1 4.575-.158l1.557.649a4.5 4.5 0 0 0 3.648-.083z"/>
    </g>
</svg>
