<svg xmlns="http://www.w3.org/2000/svg" width="80" height="68" viewBox="0 0 80 68">
    <g fill="none" fill-rule="evenodd">
        <path fill="#FFF" fill-rule="nonzero" d="M67.502 26.589L40 8.546 12.5 26.588v36.995c0 2.133-1.679 3.863-3.75 3.863-2.071 0-3.75-1.73-3.75-3.863V31.35a3.722 3.722 0 0 1-4.284-1.56c-1.126-1.767-.63-4.127 1.109-5.271L37.96.728a3.7 3.7 0 0 1 4.078 0l36.136 23.79c1.738 1.145 2.235 3.505 1.109 5.271A3.722 3.722 0 0 1 75 31.35v32.253c0 2.122-1.679 3.843-3.75 3.843-2.071 0-3.75-1.72-3.75-3.843V26.71c0-.04 0-.08.002-.12z"/>
        <path d="M47.84 57.052c-1.772 0-3.067 1.432-3.067 3.118s1.295 3.118 3.068 3.118c1.545 0 3.068-1.27 3.068-3.118 0-1.848-1.523-3.118-3.068-3.118zM47.84 39.035c1.546 0 3.07-1.27 3.07-3.118 0-1.848-1.524-3.118-3.07-3.118-1.772 0-3.067 1.432-3.067 3.118s1.295 3.118 3.068 3.118zM32.16 44.81c-1.546 0-3.07 1.27-3.07 3.118 0 1.848 1.524 3.118 3.07 3.118 1.772 0 3.067-1.432 3.067-3.118s-1.295-3.118-3.068-3.118z"/>
        <path fill="#FFF" fill-rule="nonzero" d="M24.09 38.111h19.115c.818 1.756 2.545 3.003 4.636 3.003 1.909 0 3.727-1.247 4.59-3.003h3.478c1.136 0 2.046-.923 2.046-2.078 0-1.155-.91-2.08-2.046-2.08h-3.364c-.818-1.87-2.704-3.233-4.704-3.233-2.16 0-3.977 1.363-4.727 3.234H24.09c-1.136 0-2.046.924-2.046 2.079 0 1.155.91 2.078 2.046 2.078zM47.84 32.8c1.546 0 3.07 1.27 3.07 3.118 0 1.848-1.524 3.118-3.07 3.118-1.772 0-3.067-1.432-3.067-3.118S46.068 32.8 47.84 32.8zM55.91 45.965H36.885c-.75-1.871-2.568-3.234-4.727-3.234-2 0-3.886 1.363-4.704 3.234H24.09c-1.114 0-2.046.924-2.046 2.078 0 1.155.932 2.08 2.046 2.08h3.477c.864 1.755 2.682 3.002 4.591 3.002 2.068 0 3.818-1.247 4.636-3.003H55.91c1.114 0 2.046-.924 2.046-2.079 0-1.154-.932-2.078-2.046-2.078zm-23.75 5.081c-1.546 0-3.07-1.27-3.07-3.118 0-1.848 1.524-3.118 3.07-3.118 1.772 0 3.067 1.432 3.067 3.118s-1.295 3.118-3.068 3.118zM55.91 58.207h-3.365c-.818-1.871-2.704-3.234-4.704-3.234-2.16 0-3.977 1.363-4.727 3.234H24.09c-1.136 0-2.046.923-2.046 2.078 0 1.155.91 2.08 2.046 2.08h19.114c.818 1.755 2.545 3.002 4.636 3.002 1.909 0 3.727-1.247 4.59-3.003h3.478c1.136 0 2.046-.924 2.046-2.079 0-1.155-.91-2.078-2.046-2.078zm-8.07 5.081c-1.772 0-3.067-1.432-3.067-3.118s1.295-3.118 3.068-3.118c1.545 0 3.068 1.27 3.068 3.118 0 1.848-1.523 3.118-3.068 3.118z"/>
    </g>
</svg>
